<svg width="226" height="306" viewBox="0 0 226 306" fill="none" xmlns="http://www.w3.org/2000/svg">
<path d="M0.348986 147.212L31.4644 184.294L70.3051 151.703L70.2528 88.5558L0.348986 147.212Z" fill="#007AFF"/>
<path d="M91.8837 256.299L133.183 305.517L132.928 50.0804L91.6283 0.861797L91.8837 256.299Z" fill="#007AFF"/>
<path d="M225.583 158.227L194.467 121.145L154.506 154.677L154.559 217.823L225.583 158.227Z" fill="#007AFF"/>
<path d="M139.325 158.903L139.535 24.1537L162.989 111.301L214.018 96.2287L139.325 158.903Z" fill="#090909"/>
<path d="M76.9466 146.13L85.1244 139.268L85.0721 76.1209L76.8942 82.9829L76.9466 146.13Z" fill="#090909"/>
<path d="M147.865 160.249L139.687 167.111L139.739 230.258L147.917 223.396L147.865 160.249Z" fill="#090909"/>
<path d="M30.4722 183.111L57.7618 160.213L56.7057 214.375L30.4722 183.111Z" fill="#007AFF"/>
</svg>
