<svg width="897" height="178" viewBox="0 0 897 178" fill="none" xmlns="http://www.w3.org/2000/svg">
<path d="M18.7351 91.2033L35.7065 111.429L56.8917 93.6526L56.8631 59.2101L18.7351 91.2033Z" fill="#007AFF"/>
<path d="M68.6614 150.703L91.1874 177.549L91.0482 38.2243L68.5221 11.3787L68.6614 150.703Z" fill="#007AFF"/>
<path d="M141.585 97.2113L124.614 76.9856L102.818 95.2747L102.846 129.717L141.585 97.2113Z" fill="#007AFF"/>
<path d="M94.5377 97.58L94.6521 24.083L107.445 71.6163L135.278 63.3952L94.5377 97.58Z" fill="#F5F5F5"/>
<path d="M60.5142 90.6129L64.9746 86.8702L64.9461 52.4277L60.4856 56.1705L60.5142 90.6129Z" fill="#F5F5F5"/>
<path d="M99.1954 98.3143L94.7349 102.057L94.7635 136.5L99.2239 132.757L99.1954 98.3143Z" fill="#F5F5F5"/>
<path d="M35.1654 110.784L50.0501 98.2943L49.474 127.836L35.1654 110.784Z" fill="#007AFF"/>
<path d="M254.966 65.1743L193.238 113.174H254.966V122.774H177.302V113.174L239.414 65.1743H177.302V55.5743H254.966V65.1743ZM275.28 122.774H265.776V69.9743H275.28V122.774ZM344.224 122.774H289.12V69.7823H344.224V79.4783H298.816V113.078H344.224V122.774ZM338.08 100.886H303.328V91.1903H338.08V100.886Z" fill="#F5F5F5"/>
<path d="M449.702 122.774H406.406C401.734 122.774 397.51 121.91 393.734 120.182C389.958 118.454 386.694 116.054 383.942 112.982C381.254 109.91 379.174 106.358 377.702 102.326C376.23 98.2303 375.494 93.8463 375.494 89.1743C375.494 84.5663 376.23 80.2463 377.702 76.2143C379.174 72.1183 381.254 68.5343 383.942 65.4623C386.694 62.3263 389.958 59.8943 393.734 58.1663C397.51 56.4383 401.734 55.5743 406.406 55.5743H449.702V65.1743H406.406C401.99 65.1743 398.182 66.2623 394.982 68.4383C391.846 70.5503 389.414 73.4303 387.686 77.0783C385.958 80.7263 385.094 84.7583 385.094 89.1743C385.094 93.5903 385.958 97.6223 387.686 101.27C389.414 104.854 391.846 107.734 394.982 109.91C398.182 112.086 401.99 113.174 406.406 113.174H449.702V122.774ZM521.39 96.2783C521.39 101.142 520.366 105.59 518.318 109.622C516.334 113.59 513.518 116.79 509.87 119.222C506.222 121.59 501.966 122.774 497.102 122.774H480.398C475.534 122.774 471.246 121.59 467.534 119.222C463.886 116.79 461.038 113.59 458.99 109.622C457.006 105.59 456.014 101.142 456.014 96.2783C456.014 91.4143 457.006 86.9983 458.99 83.0303C461.038 79.0623 463.886 75.8943 467.534 73.5263C471.246 71.1583 475.534 69.9743 480.398 69.9743H497.102C501.966 69.9743 506.222 71.1583 509.87 73.5263C513.518 75.8943 516.334 79.0623 518.318 83.0303C520.366 86.9983 521.39 91.4143 521.39 96.2783ZM511.79 96.2783C511.79 93.2063 511.214 90.3903 510.062 87.8303C508.91 85.2703 507.214 83.2543 504.974 81.7823C502.798 80.2463 500.174 79.4783 497.102 79.4783H480.398C477.326 79.4783 474.67 80.2463 472.43 81.7823C470.254 83.2543 468.558 85.2703 467.342 87.8303C466.19 90.3903 465.614 93.2063 465.614 96.2783C465.614 99.3503 466.19 102.166 467.342 104.726C468.558 107.286 470.254 109.334 472.43 110.87C474.67 112.406 477.326 113.174 480.398 113.174H497.102C500.174 113.174 502.798 112.406 504.974 110.87C507.214 109.334 508.91 107.286 510.062 104.726C511.214 102.166 511.79 99.3503 511.79 96.2783ZM570.714 122.774H561.114V96.1823C561.114 93.1103 560.346 90.3263 558.81 87.8303C557.338 85.2703 555.322 83.2543 552.762 81.7823C550.266 80.2463 547.45 79.4783 544.314 79.4783H541.626V122.774H532.026V69.9743H544.314C548.858 69.9743 553.018 71.0303 556.794 73.1423C560.634 75.1903 563.738 77.9423 566.106 81.3983C568.538 77.9423 571.578 75.1903 575.226 73.1423C578.938 71.0303 583.002 69.9743 587.418 69.9743H599.706V122.774H590.106V79.4783H587.418C584.346 79.4783 581.53 80.3103 578.97 81.9743C576.474 83.5743 574.458 85.7183 572.922 88.4063C571.45 91.0943 570.714 94.1023 570.714 97.4303V122.774ZM673.879 89.1743C673.879 92.6303 673.015 95.8303 671.287 98.7743C669.559 101.718 667.223 104.086 664.279 105.878C661.399 107.606 658.199 108.47 654.679 108.47H627.991V98.9663H654.679C657.367 98.9663 659.639 98.0063 661.495 96.0863C663.415 94.1023 664.375 91.7983 664.375 89.1743C664.375 86.4863 663.415 84.2143 661.495 82.3583C659.639 80.4383 657.367 79.4783 654.679 79.4783H622.999V122.774H613.495V69.9743H654.679C658.199 69.9743 661.399 70.8383 664.279 72.5663C667.223 74.2943 669.559 76.6303 671.287 79.5743C673.015 82.4543 673.879 85.6543 673.879 89.1743ZM692.186 122.774H682.682V69.9743H692.186V122.774ZM756.522 122.774H706.026V69.9743H715.626V113.174H756.522V122.774ZM819.818 122.774H764.714V69.7823H819.818V79.4783H774.41V113.078H819.818V122.774ZM813.674 100.886H778.922V91.1903H813.674V100.886ZM892.544 122.774H879.488L864.512 108.47H845.024V98.9663H871.616C874.304 98.9663 876.576 98.0063 878.432 96.0863C880.352 94.1023 881.312 91.7983 881.312 89.1743C881.312 86.4863 880.352 84.2143 878.432 82.3583C876.576 80.4383 874.304 79.4783 871.616 79.4783H840.032V122.774H830.432V69.9743H871.616C875.2 69.9743 878.432 70.8383 881.312 72.5663C884.192 74.2943 886.496 76.6303 888.224 79.5743C889.952 82.4543 890.816 85.6543 890.816 89.1743C890.816 92.0543 890.208 94.7743 888.992 97.3343C887.84 99.8303 886.208 102.006 884.096 103.862C882.048 105.654 879.68 106.934 876.992 107.702L892.544 122.774Z" fill="#007AFF"/>
</svg>
