<svg width="291" height="394" viewBox="0 0 291 394" fill="none" xmlns="http://www.w3.org/2000/svg">
<path d="M0.24195 189.371L40.319 237.133L90.3464 195.155L90.2789 113.821L0.24195 189.371Z" fill="#007AFF"/>
<path d="M118.14 329.876L171.334 393.271L171.005 64.2644L117.811 0.870252L118.14 329.876Z" fill="#007AFF"/>
<path d="M290.346 203.559L250.269 155.797L198.798 198.986L198.866 280.32L290.346 203.559Z" fill="#007AFF"/>
<path d="M179.245 204.43L179.515 30.8706L209.725 143.118L275.45 123.704L179.245 204.43Z" fill="#F5F5F5"/>
<path d="M98.9007 187.977L109.434 179.139L109.366 97.805L98.8333 106.643L98.9007 187.977Z" fill="#F5F5F5"/>
<path d="M190.244 206.164L179.711 215.002L179.778 296.336L190.312 287.498L190.244 206.164Z" fill="#F5F5F5"/>
<path d="M39.041 235.61L74.1904 206.116L72.8301 275.878L39.041 235.61Z" fill="#007AFF"/>
</svg>
